# xmcd
# Track frame offsets:
# 150
# 17037
# 36010
# 50912
# 67650
# 83181
# 96365
# 114380
# 131457
#
# Disc length: 1971 seconds
# Revision: 0
# Processed by: cddbd v1.5.1PL0 Copyright (c) Steve Scherf et al.
# Submitted via: VisiTrax 2.9.10.228 - For more info visit www.synapsa.com
#
DISCID=6f07b109
DTITLE=Various Artist - Hits Monthly Nashville  PHN0308
DYEAR=1900
DGENRE=Karaoke
TTITLE0=Gill, Vince - Someday
TTITLE1=McGraw, Tim - Real Good Man
TTITLE2=Hill, Faith - You're Still Here
TTITLE3=Wynonna - What The World Needs
TTITLE4=Nichols, Joe - She Only Smokes When She Drinks
TTITLE5=Chesney, Kenny - No Shoes, No Shirt, No Problems
TTITLE6=Jewell, Buddy - Help Pour Out The Rain
TTITLE7=Walker, Clay - Few Questions, A
TTITLE8=Trick Pony - Boy Like You, A
EXTD=
EXTT0=
EXTT1=
EXTT2=
EXTT3=
EXTT4=
EXTT5=
EXTT6=
EXTT7=
EXTT8=
PLAYORDER=
